#tb 0: 1/50
#media_type 0: video
#codec_id 0: rawvideo
#dimensions 0: 720x576
#sar 0: 16/15
0,         18,         18,        1,   622080, 0x338874e8
0,         19,         19,        1,   622080, 0x1a9da32b
0,         20,         20,        1,   622080, 0x2ecc3cd9
0,         21,         21,        1,   622080, 0x0441beec
0,         22,         22,        1,   622080, 0x4de3f7ba
0,         23,         23,        1,   622080, 0x59a4c388
0,         24,         24,        1,   622080, 0x833ade92
0,         25,         25,        1,   622080, 0x4c79bbf3
0,         26,         26,        1,   622080, 0xe1998f77
0,         27,         27,        1,   622080, 0xd00e2586
0,         28,         28,        1,   622080, 0xe716d185
0,         29,         29,        1,   622080, 0x24763136
0,         30,         30,        1,   622080, 0xaeaa95a2
0,         31,         31,        1,   622080, 0x92eec65a
0,         32,         32,        1,   622080, 0x7cde9000
0,         33,         33,        1,   622080, 0x98e2752c
0,         34,         34,        1,   622080, 0x5ffe2db6
0,         35,         35,        1,   622080, 0x1e911a65
0,         36,         36,        1,   622080, 0x302d3dc2
0,         37,         37,        1,   622080, 0xc1399647
0,         38,         38,        1,   622080, 0xc4477ebf
0,         39,         39,        1,   622080, 0x50e900ca
0,         40,         40,        1,   622080, 0x867e0f7a
0,         41,         41,        1,   622080, 0xa2412ebe
0,         42,         42,        1,   622080, 0xc7a5a7e6
0,         43,         43,        1,   622080, 0xaa5d2de7
0,         44,         44,        1,   622080, 0x9bf0ce31
0,         45,         45,        1,   622080, 0xfb88fbf9
0,         46,         46,        1,   622080, 0xe6321572
0,         47,         47,        1,   622080, 0x5541fa37
